<svg width="1440" height="500" viewBox="0 0 1440 500" xmlns="http://www.w3.org/2000/svg"><mask id="satori_om-id"><rect x="0" y="0" width="1440" height="500" fill="#fff"/></mask><mask id="satori_om-id-0"><rect x="0" y="0" width="288" height="500" fill="#fff"/></mask><rect x="0" y="0" width="288" height="500" fill="#555b6e"/><mask id="satori_om-id-0-0"><rect x="100" y="236" width="89" height="28" fill="#fff"/></mask><text x="100" y="256.7932104184129" width="12.86221590909091" height="28.238636363636363" font-weight="bold" font-style="normal" font-size="20" font-family="system-ui" fill="#FFFFFF">#</text><text x="112.8622159090909" y="256.7932104184129" width="75.36931818181819" height="28.238636363636363" font-weight="bold" font-style="normal" font-size="20" font-family="system-ui" fill="#FFFFFF">555b6e</text><mask id="satori_om-id-1"><rect x="288" y="0" width="288" height="500" fill="#fff"/></mask><rect x="288" y="0" width="288" height="500" fill="#89b0ae"/><mask id="satori_om-id-1-0"><rect x="388" y="236" width="89" height="28" fill="#fff"/></mask><text x="388" y="256.7932104184129" width="12.86221590909091" height="28.238636363636363" font-weight="bold" font-style="normal" font-size="20" font-family="system-ui" fill="#FFFFFF">#</text><text x="400.86221590909093" y="256.7932104184129" width="75.17045454545455" height="28.238636363636363" font-weight="bold" font-style="normal" font-size="20" font-family="system-ui" fill="#FFFFFF">89b0ae</text><mask id="satori_om-id-2"><rect x="576" y="0" width="288" height="500" fill="#fff"/></mask><rect x="576" y="0" width="288" height="500" fill="#bee3db"/><mask id="satori_om-id-2-0"><rect x="676" y="236" width="88" height="28" fill="#fff"/></mask><text x="676" y="256.7932104184129" width="12.86221590909091" height="28.238636363636363" font-weight="bold" font-style="normal" font-size="20" font-family="system-ui" fill="#000000">#</text><text x="688.8622159090909" y="256.7932104184129" width="74.5596590909091" height="28.238636363636363" font-weight="bold" font-style="normal" font-size="20" font-family="system-ui" fill="#000000">bee3db</text><mask id="satori_om-id-3"><rect x="864" y="0" width="288" height="500" fill="#fff"/></mask><rect x="864" y="0" width="288" height="500" fill="#faf9f9"/><mask id="satori_om-id-3-0"><rect x="972" y="236" width="73" height="28" fill="#fff"/></mask><text x="972" y="256.7932104184129" width="12.86221590909091" height="28.238636363636363" font-weight="bold" font-style="normal" font-size="20" font-family="system-ui" fill="#000000">#</text><text x="984.8622159090909" y="256.7932104184129" width="60.04261363636363" height="28.238636363636363" font-weight="bold" font-style="normal" font-size="20" font-family="system-ui" fill="#000000">faf9f9</text><mask id="satori_om-id-4"><rect x="1152" y="0" width="288" height="500" fill="#fff"/></mask><rect x="1152" y="0" width="288" height="500" fill="#ffd6ba"/><mask id="satori_om-id-4-0"><rect x="1257" y="236" width="78" height="28" fill="#fff"/></mask><text x="1257" y="256.7932104184129" width="12.86221590909091" height="28.238636363636363" font-weight="bold" font-style="normal" font-size="20" font-family="system-ui" fill="#000000">#</text><text x="1269.862215909091" y="256.7932104184129" width="64.75142045454547" height="28.238636363636363" font-weight="bold" font-style="normal" font-size="20" font-family="system-ui" fill="#000000">ffd6ba</text></svg>